<svg width="1600" height="620" viewBox="0 0 1600 620" fill="none" xmlns="http://www.w3.org/2000/svg">
  <rect width="1600" height="620" fill="#050712"/>
  <defs>
    <radialGradient id="purpleGlow" cx="0" cy="0" r="1" gradientUnits="userSpaceOnUse" gradientTransform="translate(1030 270) rotate(90) scale(260 360)">
      <stop stop-color="#C026D3" stop-opacity="0.75"/>
      <stop offset="0.45" stop-color="#7C3AED" stop-opacity="0.25"/>
      <stop offset="1" stop-color="#050712" stop-opacity="0"/>
    </radialGradient>
    <radialGradient id="blueGlow" cx="0" cy="0" r="1" gradientUnits="userSpaceOnUse" gradientTransform="translate(1250 150) rotate(90) scale(220 330)">
      <stop stop-color="#38BDF8" stop-opacity="0.35"/>
      <stop offset="1" stop-color="#050712" stop-opacity="0"/>
    </radialGradient>
    <linearGradient id="stageLight" x1="1040" y1="0" x2="650" y2="620" gradientUnits="userSpaceOnUse">
      <stop stop-color="white" stop-opacity="0.2"/>
      <stop offset="0.5" stop-color="white" stop-opacity="0.06"/>
      <stop offset="1" stop-color="white" stop-opacity="0"/>
    </linearGradient>
  </defs>
  <rect width="1600" height="620" fill="url(#purpleGlow)"/>
  <rect width="1600" height="620" fill="url(#blueGlow)"/>
  <path d="M970 -40L1240 -40L780 660H510L970 -40Z" fill="url(#stageLight)"/>
  <path d="M0 430C220 370 360 375 560 430C750 482 960 488 1160 425C1330 372 1450 375 1600 420V620H0V430Z" fill="#02040D" fill-opacity="0.72"/>
  <ellipse cx="1020" cy="438" rx="240" ry="46" fill="#D946EF" fill-opacity="0.18"/>
  <ellipse cx="1020" cy="438" rx="150" ry="23" fill="#F0ABFC" fill-opacity="0.14"/>
  <circle cx="1130" cy="255" r="155" stroke="#D946EF" stroke-opacity="0.42" stroke-width="4"/>
  <circle cx="1130" cy="255" r="112" stroke="#8B5CF6" stroke-opacity="0.32" stroke-width="2"/>
  <path d="M1118 130L1195 255L1118 380L1040 255L1118 130Z" fill="#8B5CF6" fill-opacity="0.34" stroke="#F0ABFC" stroke-opacity="0.75" stroke-width="4"/>
  <path d="M1118 130L1118 380L1040 255L1118 130Z" fill="#38BDF8" fill-opacity="0.24"/>
  <path d="M1118 130L1195 255H1118V130Z" fill="#F0ABFC" fill-opacity="0.25"/>
  <g opacity="0.55">
    <circle cx="150" cy="90" r="2" fill="white"/>
    <circle cx="240" cy="160" r="1.5" fill="white"/>
    <circle cx="450" cy="80" r="1.8" fill="white"/>
    <circle cx="790" cy="120" r="2.5" fill="white"/>
    <circle cx="1330" cy="80" r="1.6" fill="white"/>
    <circle cx="1460" cy="210" r="2" fill="white"/>
    <circle cx="1410" cy="350" r="1.5" fill="white"/>
  </g>
  <rect width="1600" height="620" fill="#020617" fill-opacity="0.18"/>
</svg>
