<svg xmlns="http://www.w3.org/2000/svg" viewBox="0 0 24 24">
  <path fill="#4285F4" d="M23.49 12.27c0-.78-.07-1.53-.2-2.25H12v4.26h6.46c-.28 1.5-1.13 2.77-2.4 3.62v3h3.89c2.27-2.1 3.54-5.18 3.54-8.63z"/>
  <path fill="#34A853" d="M12 24c3.24 0 5.95-1.08 7.94-2.92l-3.89-3c-1.08.72-2.46 1.15-4.05 1.15-3.12 0-5.77-2.11-6.72-4.94H1.26v3.09C3.24 21.31 7.3 24 12 24z"/>
  <path fill="#FBBC05" d="M5.28 14.29c-.24-.72-.38-1.49-.38-2.29s.14-1.57.38-2.29V6.62H1.26C.45 8.24 0 10.07 0 12s.45 3.76 1.26 5.38l4.02-3.09z"/>
  <path fill="#EA4335" d="M12 4.77c1.76 0 3.34.61 4.59 1.8l3.45-3.45C17.95 1.17 15.24 0 12 0 7.3 0 3.24 2.69 1.26 6.62l4.02 3.09C6.23 6.88 8.88 4.77 12 4.77z"/>
</svg>
